<?xml version="1.0" encoding="UTF-8"?>
<svg id="_레이어_1" data-name="레이어 1" xmlns="http://www.w3.org/2000/svg" viewBox="0 0 23.64 20.45">
  <defs>
    <style>
      .cls-1 {
        fill: #e78934;
      }

      .cls-2 {
        fill: #686666;
      }
    </style>
  </defs>
  <g id="LWPOLYLINE">
    <path class="cls-2" d="M18.18,13.26c.36-.98.54-2.01.54-3.06s-.18-2.08-.54-3.06-.86-1.8-1.52-2.55-1.47-1.35-2.37-1.78c-.38-.18-.78-.32-1.18-.42V0h4.64l5.89,10.21-5.92,10.25h-4.61v-2.45c.41-.1.8-.24,1.18-.42.9-.42,1.71-1.03,2.37-1.78s1.17-1.61,1.52-2.55Z"/>
  </g>
  <g id="LWPOLYLINE-2" data-name="LWPOLYLINE">
    <path class="cls-2" d="M10.53,2.4c-.41.1-.8.24-1.18.42-.9.42-1.71,1.03-2.37,1.78s-1.17,1.61-1.52,2.55-.54,2.01-.54,3.06.18,2.08.54,3.06.86,1.8,1.52,2.55,1.47,1.35,2.37,1.78c.38.18.78.32,1.18.42v2.45h-4.61L0,10.21,5.89,0h4.64v2.4Z"/>
  </g>
  <g id="LWPOLYLINE-3" data-name="LWPOLYLINE">
    <path class="cls-1" d="M13.72,15.87c.65-.33,1.23-.78,1.7-1.35s.85-1.23,1.09-1.94c.27-.77.4-1.58.4-2.39,0-.35-.03-.7-.08-1.05h-5.76c-.2,0-.36-.16-.36-.36v-.81c0-.48.39-.86.86-.86h4.65c-.22-.44-.49-.86-.8-1.24-.47-.56-1.05-1.02-1.7-1.35-.59-.29-1.24-.45-1.9-.45s-1.31.15-1.9.45c-.65.33-1.23.78-1.7,1.35s-.85,1.23-1.09,1.94c-.27.77-.4,1.58-.4,2.39,0,.37.03.74.08,1.1h5.75c.2,0,.36.16.36.36v.81c0,.48-.39.86-.86.86h-4.62c.21.42.47.82.78,1.19.47.56,1.05,1.02,1.7,1.35.59.29,1.24.45,1.9.45s1.31-.15,1.9-.45Z"/>
  </g>
</svg>