<?xml version="1.0" encoding="UTF-8"?>
<svg id="_레이어_1" xmlns="http://www.w3.org/2000/svg" version="1.1" viewBox="0 0 216 216">
  <!-- Generator: Adobe Illustrator 29.6.0, SVG Export Plug-In . SVG Version: 2.1.1 Build 207)  -->
  <defs>
    <style>
      .st0 {
        fill: #e78934;
      }

      .st1 {
        fill: #686666;
      }
    </style>
  </defs>
  <g id="LWPOLYLINE">
    <path class="st1" d="M165.61,150.03c3.26-8.84,4.89-18.14,4.89-27.62s-1.63-18.77-4.89-27.62c-3.26-8.84-7.79-16.24-13.77-23.01-5.98-6.77-13.32-12.18-21.47-16.06-3.44-1.62-7.07-2.89-10.69-3.79v-21.57h42.04l53.37,92.14-53.64,92.5h-41.77v-22.11c3.71-.9,7.25-2.17,10.69-3.79,8.15-3.79,15.49-9.3,21.47-16.06,5.98-6.77,10.6-14.53,13.77-23.01Z"/>
  </g>
  <g id="LWPOLYLINE-2">
    <path class="st1" d="M96.3,52.02c-3.71.9-7.25,2.17-10.69,3.79-8.15,3.79-15.49,9.3-21.47,16.06-5.98,6.77-10.6,14.53-13.77,23.01-3.17,8.48-4.89,18.14-4.89,27.62s1.63,18.77,4.89,27.62c3.26,8.84,7.79,16.24,13.77,23.01,5.98,6.77,13.32,12.18,21.47,16.06,3.44,1.62,7.07,2.89,10.69,3.79v22.11h-41.77L.89,122.5,54.26,30.36h42.04v21.66Z"/>
  </g>
  <g id="LWPOLYLINE-3">
    <path class="st0" d="M125.2,173.58c5.89-2.98,11.14-7.04,15.4-12.18s7.7-11.1,9.88-17.51c2.45-6.95,3.62-14.26,3.62-21.57,0-3.16-.27-6.32-.72-9.48h-52.19c-1.81,0-3.26-1.44-3.26-3.25v-7.31c0-4.33,3.53-7.76,7.79-7.76h42.13c-1.99-3.97-4.44-7.76-7.25-11.19-4.26-5.05-9.51-9.21-15.4-12.18-5.35-2.62-11.23-4.06-17.21-4.06s-11.87,1.35-17.21,4.06c-5.89,2.98-11.14,7.04-15.4,12.18-4.26,5.14-7.7,11.1-9.88,17.51-2.45,6.95-3.62,14.26-3.62,21.57,0,3.34.27,6.68.72,9.93h52.1c1.81,0,3.26,1.44,3.26,3.25v7.31c0,4.33-3.53,7.76-7.79,7.76h-41.86c1.9,3.79,4.26,7.4,7.07,10.74,4.26,5.05,9.51,9.21,15.4,12.18,5.35,2.62,11.23,4.06,17.21,4.06s11.87-1.35,17.21-4.06Z"/>
  </g>
</svg>